<?xml version="1.0" encoding="UTF-8" standalone="no"?>
<!-- Created with Inkscape (http://www.inkscape.org/) -->

<svg
   width="41.047211mm"
   height="11.814886mm"
   viewBox="0 0 41.047211 11.814886"
   version="1.1"
   id="svg1"
   inkscape:version="1.4 (86a8ad7, 2024-10-11)"
   sodipodi:docname="logo_final.svg"
   xmlns:inkscape="http://www.inkscape.org/namespaces/inkscape"
   xmlns:sodipodi="http://sodipodi.sourceforge.net/DTD/sodipodi-0.dtd"
   xmlns="http://www.w3.org/2000/svg"
   xmlns:svg="http://www.w3.org/2000/svg">
  <sodipodi:namedview
     id="namedview1"
     pagecolor="#dd5555"
     bordercolor="#883333"
     borderopacity="0.25"
     inkscape:showpageshadow="2"
     inkscape:pageopacity="0.0"
     inkscape:pagecheckerboard="0"
     inkscape:deskcolor="#d1d1d1"
     inkscape:document-units="mm"
     inkscape:zoom="3.9156336"
     inkscape:cx="74.062088"
     inkscape:cy="-0.38307977"
     inkscape:window-width="1920"
     inkscape:window-height="991"
     inkscape:window-x="-9"
     inkscape:window-y="-9"
     inkscape:window-maximized="1"
     inkscape:current-layer="layer1" />
  <defs
     id="defs1" />
  <g
     inkscape:label="圖層 1"
     inkscape:groupmode="layer"
     id="layer1"
     transform="translate(-20.014489,-80.251639)">
    <text
       xml:space="preserve"
       style="font-size:3.175px;text-align:start;writing-mode:lr-tb;direction:ltr;text-anchor:start;fill:#dd5555;stroke:#883333;stroke-width:0.535781;paint-order:markers fill stroke"
       x="15.671815"
       y="86.386101"
       id="text1"><tspan
         sodipodi:role="line"
         id="tspan1"
         style="stroke-width:0.535781"
         x="15.671815"
         y="86.386101" /></text>
    <path
       id="text2"
       style="font-weight:bold;font-size:10.5833px;font-family:'Noto Sans';-inkscape-font-specification:'Noto Sans, Bold';fill:#dd5555;stroke:#883333;stroke-width:0.291042;paint-order:markers fill stroke"
       d="m 26.854175,80.39716 c -0.239888,0 -0.444584,0.05661 -0.613916,0.169499 -0.162278,0.105832 -0.243396,0.306731 -0.243396,0.603063 0,0.289277 0.08112,0.490693 0.243396,0.603581 0.169332,0.112889 0.374028,0.168982 0.613916,0.168982 0.232832,0 0.433731,-0.05609 0.603064,-0.168982 0.169332,-0.112888 0.254248,-0.314304 0.254248,-0.603581 0,-0.296332 -0.08492,-0.497231 -0.254248,-0.603063 C 27.287906,80.45377 27.087007,80.39716 26.854175,80.39716 Z m 9.38754,0 v 8.043437 h 1.576648 v -1.799374 l 0.677478,-0.539502 1.661398,2.338876 h 1.82056 l -2.434476,-3.270085 2.2965,-2.508374 h -1.777669 l -1.619539,1.756999 c -0.127,0.14111 -0.24678,0.285399 -0.359668,0.433565 -0.112888,0.148166 -0.222312,0.296767 -0.328146,0.444934 h -0.02119 c 0.02117,-0.218722 0.03911,-0.434289 0.05323,-0.645955 0.02117,-0.218722 0.03152,-0.437053 0.03152,-0.655774 V 80.39716 Z m -16.034163,0.486792 v 7.556645 h 4.667415 V 87.11768 h -3.069063 v -6.233728 z m 24.966435,1.661914 c -0.409221,0 -0.804459,0.04902 -1.185458,0.147794 -0.380998,0.09172 -0.723422,0.215299 -1.02681,0.370521 l 0.518831,1.069185 c 0.268111,-0.119944 0.535975,-0.219012 0.804085,-0.296623 0.268111,-0.08467 0.543568,-0.126607 0.82579,-0.126607 0.282221,0 0.501069,0.07025 0.65629,0.211357 0.162278,0.14111 0.243396,0.363237 0.243396,0.666625 v 0.254249 l -1.005623,0.03152 c -0.860775,0.03528 -1.506445,0.197515 -1.936833,0.486792 -0.430388,0.289277 -0.645438,0.741125 -0.645438,1.354956 0,0.627943 0.169313,1.090147 0.507979,1.386479 0.338665,0.296333 0.765488,0.444417 1.280542,0.444417 0.479776,0 0.857065,-0.07076 1.132231,-0.211873 0.275166,-0.141111 0.536471,-0.366518 0.783414,-0.676961 h 0.04237 l 0.306958,0.782898 h 1.100708 v -3.852479 c 0,-0.691442 -0.208492,-1.202663 -0.624768,-1.534273 -0.409221,-0.338665 -1.001561,-0.507979 -1.777669,-0.507979 z m -12.604916,0.01033 c -0.359832,0 -0.701739,0.06697 -1.026293,0.201021 -0.3175,0.134055 -0.568449,0.349623 -0.751893,0.645956 h -0.08423 l -0.211874,-0.74104 h -1.206644 v 5.778459 h 1.577164 v -2.719731 c 0,-0.613831 0.0882,-1.083111 0.264584,-1.407666 0.176388,-0.33161 0.504143,-0.497644 0.983919,-0.497644 0.324555,0 0.561351,0.106144 0.709517,0.31781 0.148166,0.20461 0.222209,0.514933 0.222209,0.931209 v 3.376022 h 1.576648 v -3.767729 c 0,-0.740831 -0.186746,-1.277077 -0.560689,-1.608687 -0.373944,-0.338666 -0.871529,-0.50798 -1.492416,-0.50798 z m 18.499646,0 c -0.691442,0 -1.234764,0.264585 -1.629874,0.79375 -0.39511,0.529165 -0.592729,1.266827 -0.592729,2.212268 0,0.938386 0.190542,1.671734 0.571541,2.200899 0.388054,0.52211 0.924301,0.783415 1.608688,0.783415 0.345721,0 0.656044,-0.06697 0.931209,-0.201021 0.275166,-0.134055 0.511445,-0.352903 0.709001,-0.656291 h 0.04237 c -0.01411,0.09878 -0.02447,0.215278 -0.03152,0.349333 -0.0071,0.127 -0.01085,0.24678 -0.01085,0.359668 v 0.116272 c 0,0.874886 -0.405594,1.312581 -1.21698,1.312581 -0.797276,0 -1.548573,-0.148084 -2.254126,-0.444417 v 1.259355 c 0.33161,0.127001 0.670237,0.215196 1.015958,0.264583 0.352777,0.04939 0.733862,0.0739 1.143083,0.0739 0.952497,0 1.67221,-0.21505 2.159041,-0.645438 0.486832,-0.430388 0.730188,-1.058109 0.730188,-1.883606 v -5.789311 h -1.333252 l -0.127124,0.74104 h -0.04237 c -0.402166,-0.564443 -0.95964,-0.846977 -1.67225,-0.846977 z m 7.207312,0 c -0.543276,0 -1.019632,0.11322 -1.428853,0.338998 -0.409221,0.225776 -0.730416,0.564404 -0.963249,1.015958 -0.225776,0.451555 -0.33848,1.01231 -0.33848,1.682585 0,0.670276 0.126856,1.223954 0.380855,1.661397 0.253999,0.430387 0.603499,0.754862 1.047998,0.973584 0.444499,0.211666 0.955719,0.31781 1.534273,0.31781 0.444499,0 0.822304,-0.03538 1.132748,-0.105936 0.310443,-0.0635 0.61041,-0.165848 0.899686,-0.306958 v -1.21698 c -0.324554,0.155221 -0.64247,0.271722 -0.952913,0.349332 -0.303388,0.07056 -0.638219,0.105937 -1.005107,0.105937 -0.444498,0 -0.793998,-0.127374 -1.047998,-0.381372 -0.246941,-0.254 -0.377594,-0.602983 -0.391707,-1.047481 h 3.725354 v -0.762228 c 0,-0.839608 -0.232483,-1.485279 -0.698149,-1.936833 -0.465665,-0.45861 -1.097182,-0.687813 -1.894458,-0.687813 z m -32.215604,0.105937 v 5.778459 h 1.576648 v -5.778459 z m 32.22594,1.015959 c 0.366888,0 0.638549,0.1165 0.814937,0.349332 0.183447,0.232833 0.278717,0.521927 0.285771,0.867647 h -2.211752 c 0.03528,-0.416276 0.151778,-0.722801 0.349333,-0.920357 0.197555,-0.197554 0.451267,-0.296622 0.761711,-0.296622 z m -6.720004,0.158646 c 0.423332,0 0.729858,0.134449 0.920358,0.40256 0.1905,0.26811 0.28577,0.712365 0.28577,1.333252 v 0.190686 c 0,0.571498 -0.09855,0.973295 -0.296106,1.206127 -0.190499,0.225778 -0.486669,0.338998 -0.888834,0.338998 -0.754942,0 -1.132748,-0.575424 -1.132748,-1.725476 0,-1.164164 0.37073,-1.746147 1.11156,-1.746147 z m -5.55625,1.926498 v 0.47594 c 0,0.366888 -0.1165,0.652701 -0.349332,0.857312 -0.232833,0.197554 -0.518647,0.296622 -0.857312,0.296622 -0.225778,0 -0.409244,-0.04953 -0.550354,-0.148311 -0.141111,-0.105833 -0.211874,-0.278944 -0.211874,-0.518832 0,-0.275166 0.09907,-0.497293 0.296623,-0.666625 0.197555,-0.169331 0.550335,-0.260806 1.058333,-0.274919 z m -25.850101,4.11965 v 2.037601 h 1.938383 v -0.469222 h 13.785722 1.469161 10.967289 c -0.296426,-0.209245 -0.171463,-0.67842 -0.197404,-1.09864 H 39.527303 37.628194 22.098393 v -0.469739 z m 38.817785,0 v 0.469739 h -4.139799 c -0.09239,0.168932 -0.197386,0.331574 -0.326595,0.48059 -0.234064,0.249409 -0.496021,0.45192 -0.77618,0.61805 h 5.242574 v 0.469739 h 1.938383 v -2.038118 z"
       sodipodi:nodetypes="scscssscscccccccccccscccscccccccccsccccscsccsssssccccscsscccccccscscsccscsssscsscccssscccsssccccssscsccsccccscccscscccccscccsssssscssscscscssccccccccccccccccccccccccc" />
  </g>
</svg>
