<?xml version="1.0" encoding="UTF-8" standalone="no"?>
<!-- Created with Inkscape (http://www.inkscape.org/) -->

<svg
   width="49.999996mm"
   height="50mm"
   viewBox="0 0 49.999996 50"
   version="1.1"
   id="svg1"
   xml:space="preserve"
   sodipodi:docname="green_tile_anim.svg"
   inkscape:version="1.4 (86a8ad7, 2024-10-11)"
   inkscape:export-filename="green_tile_anim.png"
   inkscape:export-xdpi="99.946808"
   inkscape:export-ydpi="99.946808"
   xmlns:inkscape="http://www.inkscape.org/namespaces/inkscape"
   xmlns:sodipodi="http://sodipodi.sourceforge.net/DTD/sodipodi-0.dtd"
   xmlns="http://www.w3.org/2000/svg"
   xmlns:svg="http://www.w3.org/2000/svg"><sodipodi:namedview
     id="namedview1"
     pagecolor="#ffffff"
     bordercolor="#000000"
     borderopacity="0.25"
     inkscape:showpageshadow="2"
     inkscape:pageopacity="0.0"
     inkscape:pagecheckerboard="0"
     inkscape:deskcolor="#d1d1d1"
     inkscape:document-units="mm"
     inkscape:zoom="1.2639393"
     inkscape:cx="296.69146"
     inkscape:cy="42.327982"
     inkscape:window-width="1920"
     inkscape:window-height="991"
     inkscape:window-x="-9"
     inkscape:window-y="-9"
     inkscape:window-maximized="1"
     inkscape:current-layer="g21"><inkscape:page
       x="0"
       y="0"
       width="49.999996"
       height="50"
       id="page2"
       margin="0"
       bleed="0" /></sodipodi:namedview><defs
     id="defs1" /><rect
     style="fill:#cccccc;fill-opacity:1;stroke:#000000;stroke-width:0;paint-order:markers fill stroke"
     id="rect3"
     width="50"
     height="50"
     x="-1.6382062e-07"
     y="-4.2973022e-07"
     inkscape:export-filename="C:\Users\csn\Desktop\luanch_icon.png"
     inkscape:export-xdpi="127.00001"
     inkscape:export-ydpi="127.00001" /><g
     id="g3"
     transform="translate(-13.327333,-29.321732)"><rect
       style="fill:#ffffff;fill-opacity:1;stroke:#000000;stroke-width:0;paint-order:markers fill stroke"
       id="rect2"
       width="32.528999"
       height="32.528999"
       x="22.062834"
       y="38.057228" /><g
       id="g2"
       transform="translate(-5.7785034,9.797207)"><g
         id="g125"
         transform="translate(45.347622,-189.96093)"><path
           style="fill:#d4aa00;fill-opacity:0;stroke:#999999;stroke-width:0.264583;stroke-linecap:butt;stroke-dasharray:none;stroke-opacity:1;paint-order:markers fill stroke"
           d="m -1.1094933,218.35308 v 15.99954 H 14.890564 v -15.99954 z"
           id="path6" /><path
           id="path63"
           style="fill:#00ff71;paint-order:markers fill stroke"
           d="m 4.5077351,223.83387 v 1.2852 h -5.7495199 v 2.46858 h 5.7495199 v 1.28364 h 4.7656006 v -5.03742 z" /><path
           id="path62"
           style="fill:#008d53;paint-order:markers fill stroke"
           d="m 3.972884,223.29902 v 1.28313 h -5.2146688 v 0.53692 h 5.7495199 v -1.2852 h 4.7656006 v 5.03742 H 4.5077351 v -1.28364 h -5.7495199 v 0.53537 H 3.972884 v 1.28519 h 5.8358195 v -6.10919 z" /></g><g
         id="g122"
         transform="translate(44.495897,-131.8714)"><path
           style="fill:#d4aa00;fill-opacity:0;stroke:#999999;stroke-width:0.264583;stroke-linecap:butt;stroke-dasharray:none;stroke-opacity:1;paint-order:markers fill stroke"
           d="m -16.522409,160.26355 v 15.99954 h 16.00005749 v -15.99954 z"
           id="rect1" /><path
           id="path71"
           style="fill:#00ff71;paint-order:markers fill stroke"
           d="m -11.041187,165.88082 v 4.7656 h 1.2831262 v 5.74952 h 2.471167 v -5.74952 h 1.2831258 v -4.7656 z" /><path
           id="path70"
           style="fill:#008d53;paint-order:markers fill stroke"
           d="m -11.576038,165.34545 v 5.83634 h 1.283126 v 5.21415 h 0.5348512 v -5.74952 h -1.2831262 v -4.7656 h 5.037419 v 4.7656 h -1.2831258 v 5.74952 h 0.5348511 v -5.21415 h 1.2831258 v -5.83634 z" /></g><g
         id="g128"
         transform="translate(-10.618988,-217.3375)"><path
           style="fill:#d4aa00;fill-opacity:0;stroke:#999999;stroke-width:0.264583;stroke-linecap:butt;stroke-dasharray:none;stroke-opacity:1;paint-order:markers fill stroke"
           d="M 38.592476,261.99434 V 277.9944 H 54.592533 V 261.99434 Z"
           id="path8" /><path
           id="path37"
           style="fill:#00ff71;paint-order:markers fill stroke"
           d="m 45.357438,261.86204 v 2.13424 2.64428 2.3828 2.20504 h 2.738334 1.694987 2.92592 2.008146 v -2.46859 h -2.008146 -2.92592 -1.964738 v -2.74246 -2.38074 -1.77457 z" /><path
           id="path36"
           style="fill:#008d53;paint-order:markers fill stroke"
           d="m 44.82207,261.86204 v 2.13424 2.64428 2.3828 2.74247 h 3.273702 1.694987 2.92592 2.008146 v -0.53743 h -2.008146 -2.92592 -1.694987 -2.738334 v -2.20504 -2.3828 -2.64428 -2.13424 z m 3.003951,0 v 1.77457 2.38074 2.74246 h 1.964738 2.92592 2.008146 v -0.53536 h -2.008146 -2.92592 -1.427303 v -2.2071 -2.38074 -1.77457 z" /></g><g
         id="g127"
         transform="translate(2.0810121,-169.99208)"><path
           style="fill:#d4aa00;fill-opacity:0;stroke:#999999;stroke-width:0.264583;stroke-linecap:butt;stroke-dasharray:none;stroke-opacity:1;paint-order:markers fill stroke"
           d="m 42.157116,214.64891 v 15.99954 h 16.000057 v -15.99954 z"
           id="path5" /><path
           id="path55"
           style="fill:#00ff71;paint-order:markers fill stroke"
           d="m 42.024825,221.41387 v 2.4691 h 16.26464 v -2.4691 z" /><path
           id="path54"
           style="fill:#008d53;paint-order:markers fill stroke"
           d="m 42.024825,220.87902 v 0.53485 h 16.26464 v -0.53485 z m 0,3.00395 v 0.53691 h 16.26464 v -0.53691 z" /></g></g></g></svg>
